<svg width="20" height="20" viewBox="0 0 20 20" fill="none" xmlns="http://www.w3.org/2000/svg">
<path d="M18.6758 15.3213L17.0884 16.9088C17.0884 16.9088 12.9637 18.6765 7.07106 12.784C1.1785 6.8914 2.94627 2.76661 2.94627 2.76661L4.53372 1.17917C5.25089 0.461987 6.43701 0.546283 7.04556 1.35768L8.56083 3.37798C9.05841 4.04152 8.99249 4.97001 8.40599 5.5565L7.07106 6.8914C7.07106 6.8914 7.07106 8.06992 9.42808 10.4269C11.7851 12.784 12.9636 12.7839 12.9636 12.7839L14.2985 11.4491C14.885 10.8626 15.8135 10.7966 16.4771 11.2943L18.4973 12.8095C19.3087 13.418 19.393 14.6041 18.6758 15.3213Z" fill="url(#paint0_linear_1)"/>
<path d="M4.53372 1.17911L4.12479 1.58804L7.66032 6.30208L8.406 5.55643C8.99242 4.96995 9.05842 4.04146 8.56075 3.37793L7.04556 1.35762C6.43701 0.546218 5.2509 0.461924 4.53372 1.17911Z" fill="#ADE8F4"/>
<path d="M18.676 15.3206L18.2671 15.7296L13.5531 12.194L14.2988 11.4483C14.8852 10.8618 15.8137 10.7959 16.4773 11.2935L18.4975 12.8087C19.3089 13.4173 19.3933 14.6034 18.676 15.3206Z" fill="#ADE8F4"/>
<defs>
<linearGradient id="paint0_linear_1" x1="2.85622" y1="2.85667" x2="16.9983" y2="16.9988" gradientUnits="userSpaceOnUse">
<stop stop-color="#ADE8F4"/>
<stop offset="1" stop-color="#46B7CE"/>
</linearGradient>
</defs>
</svg>
