<svg width="20" height="20" viewBox="0 0 20 20" fill="none" xmlns="http://www.w3.org/2000/svg">
<path d="M10 20C15.5228 20 20 15.5228 20 10C20 4.47715 15.5228 0 10 0C4.47715 0 0 4.47715 0 10C0 15.5228 4.47715 20 10 20Z" fill="url(#paint0_linear_1)"/>
<path d="M6.68735 19.6524C6.44609 19.5625 6.32054 19.2988 6.38938 19.0493L9.24802 8.6836C9.39914 8.13547 9.96276 7.81461 10.5069 7.96686C11.051 8.11909 11.3695 8.68679 11.2184 9.23482L10.1424 13.1366C11.4216 13.4097 12.3187 13.1762 12.9194 12.7763C13.6791 12.2705 14.167 11.3649 14.2893 10.2896C14.4116 9.21329 14.15 8.08397 13.5522 7.24746C12.9763 6.44158 12.0667 5.8694 10.7445 5.8694C8.78032 5.8694 7.61116 6.72553 7.04081 7.77875C6.44712 8.87506 6.42802 10.32 7.0577 11.5884C7.31024 12.0972 7.10551 12.7158 6.60041 12.9702C6.09531 13.2246 5.48111 13.0184 5.22856 12.5096C4.32448 10.6883 4.30539 8.52839 5.24549 6.79238C6.20893 5.01326 8.10736 3.80952 10.7445 3.80952C12.7455 3.80952 14.2643 4.71788 15.2121 6.04409C16.1378 7.33972 16.495 8.99402 16.3211 10.5239C16.147 12.0548 15.4237 13.5782 14.0471 14.4947C12.8722 15.2768 11.3592 15.527 9.59445 15.1236L8.35188 19.6294C8.2802 19.8891 8.02148 20.0506 7.76173 19.9856C7.39542 19.894 7.03688 19.7826 6.68735 19.6524Z" fill="white"/>
<defs>
<linearGradient id="paint0_linear_1" x1="10" y1="0" x2="10" y2="20" gradientUnits="userSpaceOnUse">
<stop stop-color="#ADE8F4"/>
<stop offset="1" stop-color="#46B7CE"/>
</linearGradient>
</defs>
</svg>
