<svg width="20" height="20" viewBox="0 0 20 20" fill="none" xmlns="http://www.w3.org/2000/svg">
<path d="M18.6758 15.3213L17.0884 16.9088C17.0884 16.9088 12.9636 18.6765 7.07102 12.784C1.17846 6.8914 2.94622 2.76661 2.94622 2.76661L4.53367 1.17917C5.25085 0.461988 6.43697 0.546285 7.04552 1.35769L8.56078 3.37799C9.05836 4.04152 8.99245 4.97001 8.40595 5.5565L7.07102 6.8914C7.07102 6.8914 7.07102 8.06992 9.42803 10.4269C11.785 12.784 12.9635 12.7839 12.9635 12.7839L14.2984 11.4491C14.8849 10.8626 15.8134 10.7966 16.477 11.2943L18.4973 12.8095C19.3087 13.418 19.3929 14.6041 18.6758 15.3213Z" fill="url(#paint1_linear_4)"/>
<path d="M4.53369 1.17911L4.12476 1.58805L7.66029 6.30209L8.40597 5.55644C8.99239 4.96995 9.05839 4.04146 8.56072 3.37793L7.04553 1.35762C6.43698 0.546222 5.25087 0.461928 4.53369 1.17911Z" fill="#F7B801"/>
<path d="M18.676 15.3206L18.2671 15.7296L13.5531 12.194L14.2988 11.4484C14.8852 10.8619 15.8137 10.7959 16.4773 11.2935L18.4975 12.8088C19.3089 13.4174 19.3933 14.6034 18.676 15.3206Z" fill="#F7B801"/>
<defs>
<linearGradient id="paint1_linear_4" x1="2.85617" y1="2.85667" x2="16.9983" y2="16.9988" gradientUnits="userSpaceOnUse">
<stop stop-color="#F7B801"/>
<stop offset="1" stop-color="#F18701"/>
</linearGradient>
</defs>
</svg>
