<svg width="20" height="20" viewBox="0 0 20 20" fill="none" xmlns="http://www.w3.org/2000/svg">
<path d="M18.6759 15.3213L17.0885 16.9088C17.0885 16.9088 12.9637 18.6765 7.07114 12.784C1.17858 6.8914 2.94635 2.76661 2.94635 2.76661L4.5338 1.17917C5.25097 0.461988 6.43709 0.546285 7.04564 1.35769L8.5609 3.37799C9.05849 4.04152 8.99257 4.97001 8.40607 5.5565L7.07114 6.8914C7.07114 6.8914 7.07114 8.06992 9.42815 10.4269C11.7852 12.784 12.9637 12.7839 12.9637 12.7839L14.2986 11.4491C14.8851 10.8626 15.8136 10.7966 16.4772 11.2943L18.4974 12.8095C19.3088 13.418 19.3931 14.6041 18.6759 15.3213Z" fill="url(#paint1_linear_55)"/>
<path d="M4.53369 1.17911L4.12476 1.58805L7.66029 6.30209L8.40597 5.55644C8.99239 4.96995 9.05839 4.04146 8.56072 3.37793L7.04553 1.35762C6.43698 0.546222 5.25087 0.461928 4.53369 1.17911Z" fill="#FF7900"/>
<path d="M18.6759 15.3206L18.267 15.7296L13.553 12.194L14.2986 11.4484C14.8851 10.8619 15.8136 10.7959 16.4771 11.2935L18.4974 12.8088C19.3088 13.4174 19.3931 14.6034 18.6759 15.3206Z" fill="#FF7900"/>
<defs>
<linearGradient id="paint1_linear_55" x1="2.8563" y1="2.85667" x2="16.9984" y2="16.9988" gradientUnits="userSpaceOnUse">
<stop stop-color="#FF7900"/>
<stop offset="1" stop-color="#FF5400"/>
</linearGradient>
</defs>
</svg>
