<svg width="20" height="20" viewBox="0 0 20 20" fill="none" xmlns="http://www.w3.org/2000/svg">
<path d="M10 20C15.5228 20 20 15.5228 20 10C20 4.47715 15.5228 0 10 0C4.47715 0 0 4.47715 0 10C0 15.5228 4.47715 20 10 20Z" fill="url(#paint0_linear_4)"/>
<path d="M6.68731 19.6524C6.44605 19.5625 6.32049 19.2988 6.38934 19.0493L9.24797 8.68358C9.3991 8.13545 9.96271 7.81459 10.5069 7.96685C11.051 8.11907 11.3695 8.68677 11.2184 9.2348L10.1424 13.1366C11.4215 13.4097 12.3187 13.1762 12.9193 12.7762C13.6791 12.2704 14.167 11.3649 14.2893 10.2896C14.4116 9.21328 14.1499 8.08395 13.5522 7.24745C12.9763 6.44156 12.0666 5.86938 10.7444 5.86938C8.78027 5.86938 7.61111 6.72552 7.04076 7.77873C6.44708 8.87505 6.42798 10.3199 7.05765 11.5884C7.3102 12.0972 7.10547 12.7158 6.60036 12.9702C6.09526 13.2246 5.48106 13.0184 5.22851 12.5096C4.32443 10.6883 4.30534 8.52837 5.24545 6.79236C6.20888 5.01325 8.10731 3.80951 10.7444 3.80951C12.7455 3.80951 14.2642 4.71786 15.212 6.04407C16.1378 7.3397 16.495 8.99401 16.321 10.5239C16.147 12.0548 15.4237 13.5782 14.0471 14.4947C12.8722 15.2768 11.3592 15.527 9.5944 15.1236L8.35184 19.6293C8.28016 19.8891 8.02144 20.0506 7.76169 19.9856C7.39537 19.894 7.03684 19.7826 6.68731 19.6524Z" fill="white"/>
<defs>
<linearGradient id="paint0_linear_4" x1="10" y1="0" x2="10" y2="20" gradientUnits="userSpaceOnUse">
<stop stop-color="#FF7900"/>
<stop offset="1" stop-color="#FF5400"/>
</linearGradient>
</defs>
</svg>
