<svg width="20" height="20" viewBox="0 0 20 20" fill="none" xmlns="http://www.w3.org/2000/svg">
<path d="M10 20C15.5228 20 20 15.5228 20 10C20 4.47715 15.5228 0 10 0C4.47715 0 0 4.47715 0 10C0 15.5228 4.47715 20 10 20Z" fill="url(#paint0_linear_4)"/>
<path d="M14.0495 19.146C13.7577 19.2754 13.4323 19.0807 13.3825 18.7654C13.0209 16.476 12.4595 14.3764 11.6947 12.3829C9.7217 13.3395 7.5224 14.988 4.54041 17.8852C4.36711 18.0536 4.09752 18.0767 3.90604 17.9293C3.61434 17.7048 3.33538 17.4645 3.07043 17.2098C2.87444 17.0214 2.88113 16.7093 3.07586 16.5196C6.19793 13.478 8.61831 11.6338 10.916 10.5383C10.6104 9.8756 10.2807 9.2222 9.927 8.5749C7.24388 9.4206 4.20102 9.8836 0.509295 9.9807C0.229775 9.988 -0.0011453 9.7622 0.0130747 9.4829C0.0320947 9.1096 0.0715846 8.7416 0.130455 8.3802C0.168005 8.1497 0.368615 7.98416 0.602065 7.97735C3.88095 7.88174 6.5589 7.48498 8.8889 6.80043C7.85666 5.14419 6.66154 3.50759 5.301 1.83216C5.10715 1.59345 5.16922 1.23662 5.44284 1.0963C5.77947 0.923662 6.12718 0.769542 6.4846 0.635312C6.67974 0.562022 6.89845 0.626242 7.02919 0.788602C8.4681 2.5755 9.7351 4.33638 10.8276 6.13522C12.8565 5.33329 14.6684 4.26746 16.4647 2.92422C16.66 2.77816 16.9332 2.78958 17.1048 2.96285C17.3634 3.22391 17.6077 3.49913 17.8364 3.78727C18.0038 3.99814 17.9587 4.30315 17.7436 4.46502C15.8819 5.86565 13.9729 7.01084 11.8292 7.88805C12.1663 8.5178 12.4827 9.1545 12.7782 9.8007C14.9153 9.1236 17.0207 9.0189 19.4963 9.0028C19.7539 9.0011 19.9714 9.1963 19.9853 9.4535C19.995 9.6344 19.9999 9.8166 19.9999 10C19.9999 10.185 19.9949 10.3689 19.985 10.5514C19.9711 10.8074 19.7554 11.0017 19.4991 11.0036C17.1397 11.0207 15.3377 11.1168 13.5568 11.653C14.3335 13.6746 14.9169 15.8065 15.3041 18.1217C15.3369 18.3182 15.2486 18.5158 15.077 18.6171C14.7463 18.8124 14.4033 18.9892 14.0495 19.146Z" fill="white"/>
<defs>
<linearGradient id="paint0_linear_4" x1="10" y1="0" x2="10" y2="20" gradientUnits="userSpaceOnUse">
<stop stop-color="#94D2BD"/>
<stop offset="1" stop-color="#0A9396"/>
</linearGradient>
</defs>
</svg>
